<svg xmlns="http://www.w3.org/2000/svg" xmlns:xlink="http://www.w3.org/1999/xlink" width="140" zoomAndPan="magnify" viewBox="0 0 104.88 104.999996" height="140" preserveAspectRatio="xMidYMid meet" version="1.0"><defs><g/><clipPath id="b4ca6f3b47"><path d="M 0 0.0585938 L 104.761719 0.0585938 L 104.761719 104.9375 L 0 104.9375 Z M 0 0.0585938 " clip-rule="nonzero"/></clipPath><clipPath id="1a344d5d32"><path d="M 92 38 L 104.761719 38 L 104.761719 74 L 92 74 Z M 92 38 " clip-rule="nonzero"/></clipPath></defs><g clip-path="url(#b4ca6f3b47)"><path fill="#ffffff" d="M 0 0.0585938 L 104.878906 0.0585938 L 104.878906 112.429688 L 0 112.429688 Z M 0 0.0585938 " fill-opacity="1" fill-rule="nonzero"/><path fill="#ffffff" d="M 0 0.0585938 L 104.878906 0.0585938 L 104.878906 104.941406 L 0 104.941406 Z M 0 0.0585938 " fill-opacity="1" fill-rule="nonzero"/><path fill="#ffffff" d="M 0 0.0585938 L 104.878906 0.0585938 L 104.878906 104.941406 L 0 104.941406 Z M 0 0.0585938 " fill-opacity="1" fill-rule="nonzero"/></g><g fill="#000000" fill-opacity="1"><g transform="translate(0, 73.661697)"><g><path d="M 11.636719 -6.042969 L 11.636719 -12.089844 C 11.636719 -16.976562 9.824219 -17.378906 6.699219 -18.789062 C 4.535156 -19.746094 3.777344 -20.199219 3.777344 -23.171875 L 3.777344 -29.265625 C 3.777344 -32.1875 4.785156 -33.847656 7.203125 -33.847656 C 8.867188 -33.847656 9.621094 -33.042969 9.621094 -31.28125 L 9.621094 -24.683594 L 11.636719 -25.183594 L 11.636719 -31.28125 C 11.636719 -34.300781 10.226562 -35.761719 7.152344 -35.761719 C 3.375 -35.761719 1.761719 -33.546875 1.761719 -29.265625 L 1.761719 -23.171875 C 1.761719 -18.285156 3.578125 -17.882812 6.699219 -16.472656 C 8.867188 -15.515625 9.621094 -15.0625 9.621094 -12.089844 L 9.621094 -6.042969 C 9.621094 -3.121094 8.613281 -1.410156 6.195312 -1.410156 C 4.535156 -1.410156 3.777344 -2.214844 3.777344 -4.03125 L 3.777344 -10.074219 L 1.761719 -9.570312 L 1.761719 -4.03125 C 1.761719 -0.957031 3.171875 0.503906 6.195312 0.503906 C 10.023438 0.503906 11.636719 -1.863281 11.636719 -6.042969 Z M 11.636719 -6.042969 "/></g></g></g><g fill="#000000" fill-opacity="1"><g transform="translate(11.130734, 73.661697)"><g><path d="M 0.503906 -33.296875 L 5.035156 -33.296875 L 5.035156 0 L 7.050781 0 L 7.050781 -33.296875 L 11.082031 -33.296875 L 11.585938 -35.257812 L 0.503906 -35.257812 Z M 0.503906 -33.296875 "/></g></g></g><g fill="#000000" fill-opacity="1"><g transform="translate(21.052666, 73.661697)"><g><path d="M 11.28125 -34.757812 L 7.957031 -21.15625 L 7 -15.515625 L 6.042969 -21.15625 L 2.667969 -35.257812 L 0.753906 -34.804688 L 5.992188 -13.296875 L 5.992188 0 L 8.007812 0 L 8.007812 -13.296875 L 13.398438 -35.257812 Z M 11.28125 -34.757812 "/></g></g></g><g fill="#000000" fill-opacity="1"><g transform="translate(32.938891, 73.661697)"><g><path d="M 9.972656 -1.964844 L 3.929688 -1.964844 L 3.929688 -35.257812 L 1.914062 -34.757812 L 1.914062 0 L 9.46875 0 Z M 9.972656 -1.964844 "/></g></g></g><g fill="#000000" fill-opacity="1"><g transform="translate(41.249095, 73.661697)"><g><path d="M 3.980469 -35.257812 L 1.964844 -34.757812 L 1.964844 0 L 3.980469 0 Z M 3.980469 -35.257812 "/></g></g></g><g fill="#000000" fill-opacity="1"><g transform="translate(45.026317, 73.661697)"><g><path d="M 10.476562 -14.304688 L 10.78125 -6.449219 L 3.929688 -35.257812 L 1.914062 -34.757812 L 1.914062 0 L 3.929688 0 L 3.929688 -20.953125 L 3.625 -28.8125 L 10.476562 0.25 L 12.492188 -0.25 L 12.492188 -35.257812 L 10.476562 -34.757812 Z M 10.476562 -14.304688 "/></g></g></g><g fill="#000000" fill-opacity="1"><g transform="translate(57.265105, 73.661697)"><g><path d="M 9.871094 -6.042969 C 9.871094 -3.121094 8.816406 -1.410156 6.347656 -1.410156 C 4.632812 -1.410156 3.828125 -2.214844 3.828125 -4.03125 L 3.828125 -29.265625 C 3.828125 -32.1875 4.886719 -33.847656 7.355469 -33.847656 C 9.066406 -33.847656 9.871094 -33.042969 9.871094 -31.28125 L 9.871094 -24.179688 L 11.886719 -25.183594 L 11.886719 -31.28125 C 11.886719 -34.300781 10.425781 -35.761719 7.304688 -35.761719 C 3.476562 -35.761719 1.8125 -33.546875 1.8125 -29.265625 L 1.8125 -4.03125 C 1.8125 -0.957031 3.273438 0.503906 6.347656 0.503906 C 10.226562 0.503906 11.886719 -1.863281 11.886719 -6.042969 L 11.886719 -18.585938 L 7.355469 -18.585938 L 6.851562 -16.671875 L 9.871094 -16.671875 Z M 9.871094 -6.042969 "/></g></g></g><g fill="#000000" fill-opacity="1"><g transform="translate(68.698029, 73.661697)"><g><path d="M 1.8125 -4.03125 C 1.8125 -0.957031 3.273438 0.503906 6.347656 0.503906 C 10.226562 0.503906 11.886719 -1.863281 11.886719 -6.042969 L 11.886719 -31.28125 C 11.886719 -34.300781 10.425781 -35.761719 7.304688 -35.761719 C 3.476562 -35.761719 1.8125 -33.546875 1.8125 -29.265625 Z M 3.828125 -29.265625 C 3.828125 -32.1875 4.886719 -33.847656 7.355469 -33.847656 C 9.066406 -33.847656 9.871094 -33.042969 9.871094 -31.28125 L 9.871094 -6.042969 C 9.871094 -3.121094 8.816406 -1.410156 6.347656 -1.410156 C 4.632812 -1.410156 3.828125 -2.214844 3.828125 -4.03125 Z M 3.828125 -29.265625 "/></g></g></g><g fill="#000000" fill-opacity="1"><g transform="translate(80.231688, 73.661697)"><g><path d="M 1.914062 0 L 3.929688 0 L 3.929688 -33.246094 C 4.988281 -33.648438 5.992188 -33.847656 6.800781 -33.847656 C 8.765625 -33.847656 9.722656 -32.941406 9.722656 -31.28125 L 9.722656 -23.726562 C 9.722656 -20.5 8.816406 -18.585938 6.699219 -18.585938 L 6.144531 -18.585938 L 5.894531 -17.78125 L 10.628906 0.503906 L 12.441406 -0.503906 L 8.210938 -16.875 C 10.679688 -17.527344 11.738281 -19.945312 11.738281 -23.726562 L 11.738281 -31.28125 C 11.738281 -34.203125 10.175781 -35.761719 6.851562 -35.761719 C 5.238281 -35.761719 3.476562 -35.359375 1.914062 -34.757812 Z M 1.914062 0 "/></g></g></g><g clip-path="url(#1a344d5d32)"><g fill="#000000" fill-opacity="1"><g transform="translate(91.563878, 73.661697)"><g><path d="M 8.058594 -35.511719 L 6.042969 -35.007812 L 0.855469 0 L 2.921875 0 L 3.828125 -6.597656 L 10.324219 -6.597656 L 11.28125 0 L 13.347656 0 Z M 5.589844 -18.738281 L 7.101562 -30.574219 L 8.613281 -18.738281 L 10.074219 -8.511719 L 4.128906 -8.511719 Z M 5.589844 -18.738281 "/></g></g></g></g></svg>