<svg width="253" height="48" viewBox="0 0 253 48" fill="none" xmlns="http://www.w3.org/2000/svg">
<path d="M0.2 46V41.776C1.18133 41.7333 1.992 41.6053 2.632 41.392C3.31467 41.1787 3.82667 40.688 4.168 39.92C4.552 39.152 4.744 37.9147 4.744 36.208V11.696C4.744 10.544 4.76533 9.43467 4.808 8.368C4.89333 7.30133 4.95733 6.49066 5 5.936C4.31733 5.97867 3.464 6.02133 2.44 6.064C1.416 6.064 0.669334 6.08533 0.2 6.128V1.2H32.2L32.584 13.616H28.36C28.36 11.2693 27.9547 9.49866 27.144 8.304C26.3333 7.10933 25.3307 6.32 24.136 5.936C22.9413 5.50933 21.768 5.31733 20.616 5.36L18.312 5.424C17.416 5.424 16.648 5.552 16.008 5.808C15.368 6.02133 14.8773 6.53333 14.536 7.344C14.1947 8.112 14.024 9.328 14.024 10.992V22.128H20.616L20.36 16.624H25.288V32.176H21.064C21.064 30.384 20.7867 29.0827 20.232 28.272C19.6773 27.4613 18.9093 26.9707 17.928 26.8C16.9893 26.5867 15.944 26.5013 14.792 26.544H14.024V35.504C14.024 36.656 14.0027 37.7653 13.96 38.832C13.9173 39.8987 13.8533 40.7093 13.768 41.264C14.2373 41.2213 14.856 41.2 15.624 41.2C16.392 41.1573 17.1387 41.136 17.864 41.136C18.632 41.0933 19.1653 41.072 19.464 41.072V46H0.2ZM30.5685 46V41.584C31.7632 41.584 32.7232 41.2427 33.4485 40.56C34.1738 39.8773 34.7712 38.9813 35.2405 37.872C35.7525 36.7627 36.2432 35.568 36.7125 34.288L49.1925 0.0479965H53.6725L67.3045 34.928C67.5605 35.568 67.9018 36.5493 68.3285 37.872C68.7552 39.152 69.0112 40.2827 69.0965 41.264C69.8218 41.1787 70.5045 41.136 71.1445 41.136C71.8272 41.0933 72.3818 41.072 72.8085 41.072V46H55.5925V41.776C56.7872 41.776 57.5978 41.5413 58.0245 41.072C58.4938 40.56 58.7072 39.8773 58.6645 39.024C58.6218 38.1707 58.3872 37.2107 57.9605 36.144L56.6805 32.624L42.7925 32.88L41.7685 35.888C41.5552 36.4427 41.2352 37.2747 40.8085 38.384C40.4245 39.4507 40.0618 40.3467 39.7205 41.072C40.4032 40.9867 41.2138 40.944 42.1525 40.944C43.1338 40.9013 43.8378 40.88 44.2645 40.88V46H30.5685ZM44.3925 28.08H55.0805L52.1365 20.08C51.5818 18.544 51.0912 17.008 50.6645 15.472C50.2378 13.8933 49.9178 12.5067 49.7045 11.312H49.6405C49.4698 12.0373 49.2138 13.1253 48.8725 14.576C48.5312 16.0267 47.9978 17.7547 47.2725 19.76L44.3925 28.08ZM76.2625 46V41.776C77.2438 41.7333 78.0545 41.6053 78.6945 41.392C79.3772 41.1787 79.8892 40.688 80.2305 39.92C80.6145 39.152 80.8065 37.9147 80.8065 36.208V11.696C80.8065 10.544 80.8278 9.43467 80.8705 8.368C80.9558 7.30133 81.0198 6.49066 81.0625 5.936C80.3798 5.97867 79.5265 6.02133 78.5025 6.064C77.4785 6.064 76.7318 6.08533 76.2625 6.128V1.2C79.2918 1.15733 82.3212 1.136 85.3505 1.136C88.3798 1.136 91.4092 1.11466 94.4385 1.072C98.1932 1.02933 101.457 1.456 104.231 2.352C107.004 3.248 109.137 4.69867 110.631 6.704C112.124 8.70933 112.828 11.4187 112.743 14.832C112.7 16.624 112.252 18.3307 111.399 19.952C110.588 21.5733 109.351 23.0027 107.687 24.24C106.065 25.4773 103.996 26.4587 101.479 27.184C102.289 27.5253 103.079 28.08 103.847 28.848C104.657 29.616 105.34 30.4267 105.895 31.28L108.903 35.76C109.841 37.2107 110.673 38.3627 111.399 39.216C112.124 40.0693 112.849 40.7093 113.575 41.136C114.3 41.52 115.132 41.7333 116.071 41.776V46H105.511C104.743 45.4453 103.975 44.656 103.207 43.632C102.481 42.5653 101.692 41.3493 100.839 39.984L96.1025 32.304C95.5478 31.4507 95.0572 30.7253 94.6305 30.128C94.2465 29.5307 93.8412 29.0187 93.4145 28.592C92.7318 28.592 92.1558 28.592 91.6865 28.592C91.2172 28.592 90.6838 28.592 90.0865 28.592V35.44C90.0865 36.6347 90.0652 37.7653 90.0225 38.832C89.9798 39.8987 89.9158 40.7093 89.8305 41.264C90.2998 41.2213 90.8972 41.2 91.6225 41.2C92.3478 41.1573 93.0518 41.136 93.7345 41.136C94.4598 41.0933 94.9718 41.072 95.2705 41.072V46H76.2625ZM93.1585 23.984C95.5478 23.984 97.4678 23.6427 98.9185 22.96C100.369 22.2347 101.415 21.168 102.055 19.76C102.737 18.3093 103.079 16.496 103.079 14.32C103.079 12.272 102.759 10.672 102.119 9.52C101.479 8.32533 100.668 7.45066 99.6865 6.896C98.7478 6.29867 97.7878 5.936 96.8065 5.808C95.8252 5.63733 95.0145 5.552 94.3745 5.552C93.4785 5.552 92.7105 5.65866 92.0705 5.872C91.4305 6.08533 90.9398 6.55466 90.5985 7.28C90.2572 8.00533 90.0865 9.11467 90.0865 10.608V23.728C90.5558 23.7707 91.0465 23.8347 91.5585 23.92C92.0705 23.9627 92.6038 23.984 93.1585 23.984ZM120.138 46V41.776C121.119 41.7333 121.93 41.6053 122.57 41.392C123.252 41.1787 123.764 40.688 124.106 39.92C124.49 39.152 124.682 37.9147 124.682 36.208V11.696C124.682 10.544 124.703 9.43467 124.746 8.368C124.831 7.30133 124.895 6.49066 124.938 5.936C124.255 5.97867 123.402 6.02133 122.378 6.064C121.354 6.064 120.607 6.08533 120.138 6.128V1.2C123.167 1.15733 126.196 1.136 129.226 1.136C132.255 1.136 135.284 1.11466 138.314 1.072C142.068 1.02933 145.332 1.456 148.106 2.352C150.879 3.248 153.012 4.69867 154.506 6.704C155.999 8.70933 156.703 11.4187 156.618 14.832C156.575 16.624 156.127 18.3307 155.274 19.952C154.463 21.5733 153.226 23.0027 151.562 24.24C149.94 25.4773 147.871 26.4587 145.354 27.184C146.164 27.5253 146.954 28.08 147.722 28.848C148.532 29.616 149.215 30.4267 149.77 31.28L152.778 35.76C153.716 37.2107 154.548 38.3627 155.274 39.216C155.999 40.0693 156.724 40.7093 157.45 41.136C158.175 41.52 159.007 41.7333 159.946 41.776V46H149.386C148.618 45.4453 147.85 44.656 147.082 43.632C146.356 42.5653 145.567 41.3493 144.714 39.984L139.978 32.304C139.423 31.4507 138.932 30.7253 138.506 30.128C138.122 29.5307 137.716 29.0187 137.29 28.592C136.607 28.592 136.031 28.592 135.562 28.592C135.092 28.592 134.559 28.592 133.962 28.592V35.44C133.962 36.6347 133.94 37.7653 133.898 38.832C133.855 39.8987 133.791 40.7093 133.706 41.264C134.175 41.2213 134.772 41.2 135.498 41.2C136.223 41.1573 136.927 41.136 137.61 41.136C138.335 41.0933 138.847 41.072 139.146 41.072V46H120.138ZM137.034 23.984C139.423 23.984 141.343 23.6427 142.794 22.96C144.244 22.2347 145.29 21.168 145.93 19.76C146.612 18.3093 146.954 16.496 146.954 14.32C146.954 12.272 146.634 10.672 145.994 9.52C145.354 8.32533 144.543 7.45066 143.562 6.896C142.623 6.29867 141.663 5.936 140.682 5.808C139.7 5.63733 138.89 5.552 138.25 5.552C137.354 5.552 136.586 5.65866 135.946 5.872C135.306 6.08533 134.815 6.55466 134.474 7.28C134.132 8.00533 133.962 9.11467 133.962 10.608V23.728C134.431 23.7707 134.922 23.8347 135.434 23.92C135.946 23.9627 136.479 23.984 137.034 23.984ZM185.012 47.024C180.959 47.024 177.503 46.3413 174.644 44.976C171.828 43.6107 169.545 41.7973 167.796 39.536C166.047 37.232 164.767 34.6933 163.956 31.92C163.145 29.1467 162.74 26.3733 162.74 23.6C162.74 20.912 163.188 18.2027 164.084 15.472C165.023 12.6987 166.409 10.16 168.244 7.856C170.121 5.552 172.468 3.696 175.284 2.288C178.1 0.879999 181.407 0.175999 185.204 0.175999C189.087 0.175999 192.436 0.879999 195.252 2.288C198.068 3.696 200.372 5.57333 202.164 7.92C203.956 10.224 205.279 12.7413 206.132 15.472C207.028 18.2027 207.476 20.912 207.476 23.6C207.476 26.2453 207.007 28.9333 206.068 31.664C205.172 34.3947 203.785 36.9333 201.908 39.28C200.073 41.584 197.748 43.4613 194.932 44.912C192.116 46.32 188.809 47.024 185.012 47.024ZM185.716 42.352C187.935 42.352 189.791 41.8187 191.284 40.752C192.777 39.6427 193.972 38.2133 194.868 36.464C195.764 34.7147 196.404 32.816 196.788 30.768C197.172 28.6773 197.364 26.6507 197.364 24.688C197.364 21.744 197.108 19.056 196.596 16.624C196.084 14.192 195.295 12.1013 194.228 10.352C193.161 8.56 191.796 7.19466 190.132 6.256C188.511 5.27466 186.591 4.80533 184.372 4.848C182.196 4.89067 180.361 5.488 178.868 6.64C177.375 7.74933 176.18 9.2 175.284 10.992C174.388 12.7413 173.748 14.6613 173.364 16.752C172.98 18.8427 172.788 20.8693 172.788 22.832C172.788 24.8373 173.001 26.9707 173.428 29.232C173.897 31.4933 174.623 33.6267 175.604 35.632C176.585 37.6373 177.908 39.2587 179.572 40.496C181.236 41.7333 183.284 42.352 185.716 42.352ZM209.865 46V41.776C211.102 41.4773 212.34 40.7947 213.577 39.728C214.814 38.6187 216.222 37.0187 217.801 34.928L225.225 25.008C223.518 22.832 221.812 20.656 220.105 18.48C218.398 16.304 216.67 14.128 214.921 11.952C214.238 11.056 213.62 10.0747 213.065 9.008C212.51 7.89867 212.062 6.87466 211.721 5.936C211.038 5.97867 210.441 6.02133 209.929 6.064C209.46 6.064 208.99 6.08533 208.521 6.128V1.2H227.977V5.424H227.337C226.014 5.424 225.097 5.616 224.585 6C224.073 6.384 223.881 6.91733 224.009 7.6C224.18 8.24 224.585 8.96533 225.225 9.776C226.206 10.9707 227.166 12.1653 228.105 13.36C229.044 14.5547 229.982 15.7707 230.921 17.008L235.785 10.288C236.681 9.05067 237.385 8.15467 237.897 7.6C238.452 7.00267 239.006 6.448 239.561 5.936C238.878 5.97867 238.025 6.02133 237.001 6.064C235.977 6.064 235.23 6.08533 234.761 6.128V1.2H249.289V5.424C248.308 5.552 247.326 5.89333 246.345 6.448C245.406 7.00267 244.446 7.792 243.465 8.816C242.484 9.79733 241.417 11.0773 240.265 12.656L234.121 21.04C235.486 22.7467 236.83 24.4533 238.153 26.16C239.476 27.8667 240.798 29.5733 242.121 31.28C243.486 32.9867 244.83 34.6933 246.153 36.4C246.878 37.296 247.54 38.1493 248.137 38.96C248.734 39.7707 249.182 40.5387 249.481 41.264C250.206 41.1787 250.718 41.136 251.017 41.136C251.316 41.0933 251.678 41.072 252.105 41.072V46H232.969V41.776C234.548 41.776 235.572 41.584 236.041 41.2C236.51 40.816 236.617 40.304 236.361 39.664C236.148 38.9813 235.721 38.2347 235.081 37.424C234.014 36.0587 232.926 34.6933 231.817 33.328C230.75 31.92 229.662 30.5333 228.553 29.168C227.614 30.448 226.676 31.7493 225.737 33.072C224.798 34.352 223.86 35.632 222.921 36.912C222.025 38.1067 221.342 39.0027 220.873 39.6C220.404 40.1973 219.913 40.752 219.401 41.264C220.126 41.2213 220.958 41.1787 221.897 41.136C222.836 41.0933 223.518 41.072 223.945 41.072V46H209.865Z" fill="black"/>
</svg>
